<?xml version="1.0" standalone="no"?>
<!DOCTYPE svg PUBLIC "-//W3C//DTD SVG 20010904//EN"
 "http://www.w3.org/TR/2001/REC-SVG-20010904/DTD/svg10.dtd">
<svg version="1.0" xmlns="http://www.w3.org/2000/svg"
 width="400.000000pt" height="400.000000pt" viewBox="0 0 400.000000 400.000000"
 preserveAspectRatio="xMidYMid meet">

<g transform="translate(0.000000,400.000000) scale(0.100000,-0.100000)"
fill="#000000" stroke="none">
<path d="M0 2000 l0 -2000 2000 0 2000 0 0 2000 0 2000 -2000 0 -2000 0 0
-2000z m2704 932 c44 -75 128 -220 186 -322 176 -305 343 -594 353 -611 11
-18 13 -13 -446 -807 l-169 -292 -631 2 -631 3 -81 140 c-261 447 -535 925
-535 935 0 11 119 223 275 490 37 63 103 178 147 255 44 77 107 186 140 243
l60 102 627 0 626 0 79 -138z m-2076 -49 c93 -158 152 -264 152 -274 0 -10
-103 -193 -252 -447 -50 -84 -92 -162 -95 -172 -3 -12 20 -60 59 -127 36 -59
80 -135 98 -168 18 -33 69 -121 113 -195 44 -74 80 -139 80 -145 0 -14 -190
-336 -198 -336 -9 0 -42 55 -195 321 -65 113 -140 243 -167 290 -27 47 -84
145 -127 218 l-77 133 85 147 c46 81 123 215 171 297 48 83 132 229 187 325
93 163 116 200 123 200 2 0 21 -30 43 -67z m2840 -20 c28 -49 97 -169 154
-268 293 -507 348 -603 348 -614 0 -7 -27 -58 -59 -114 -228 -395 -391 -676
-439 -759 -30 -54 -59 -95 -63 -93 -4 3 -29 45 -56 93 -27 48 -71 124 -97 168
l-47 81 59 99 c32 55 114 195 181 311 l122 213 -104 182 c-58 101 -139 242
-181 314 l-76 132 76 128 c41 71 85 148 96 172 12 23 25 42 29 42 4 0 29 -39
57 -87z"/>
<path d="M1453 2928 l35 -63 509 -2 508 -3 37 65 36 65 -580 0 -580 0 35 -62z"/>
<path d="M1541 2662 c-54 -93 -259 -448 -329 -570 l-64 -113 117 -202 c65
-111 160 -275 213 -364 l95 -163 426 0 426 0 34 58 c41 69 161 278 293 507 87
153 96 172 84 190 -7 11 -65 110 -128 220 -64 110 -153 265 -200 345 l-84 145
-424 2 -425 3 -34 -58z"/>
<path d="M1455 1039 c-21 -33 -35 -62 -33 -65 3 -2 264 -3 581 -2 l576 3 -36
63 -37 62 -507 0 -508 0 -36 -61z"/>
</g>
</svg>
